<svg id="Layer_1" data-name="Layer 1" xmlns="http://www.w3.org/2000/svg" viewBox="0 0 265.274 228.46"><defs><style>.cls-1{fill:none;stroke:#231f20;stroke-miterlimit:10;}</style></defs><title>Artboard 1</title><polygon class="cls-1" points="103.687 1.161 173.608 71.082 97.91 146.779 103.687 1.161"/><polygon class="cls-1" points="191.735 21.879 243.727 73.871 157.074 143.393 59.066 66.898 191.735 21.879"/><rect class="cls-1" x="17.684" y="67.097" width="243.264" height="88.34" transform="translate(74.298 -54.751) rotate(30)"/><rect class="cls-1" x="-51.811" y="124.139" width="191.612" height="88.34" transform="matrix(0.866, 0.5, -0.5, 0.866, 90.049, 0.552)"/><rect class="cls-1" x="0.5" y="25.066" width="87.251" height="111.554"/><polygon class="cls-1" points="39.544 170.683 115.241 160.922 112.851 207.536 62.651 227.855 36.755 194.389 92.133 180.843 39.544 170.683"/><rect class="cls-1" x="-24.883" y="136.554" width="137.756" height="63.511" transform="translate(90.049 0.552) rotate(30)"/></svg>